<svg id="Layer_1" data-name="Layer 1" xmlns="http://www.w3.org/2000/svg" viewBox="0 0 1108.51 1280"><defs><style>.cls-1{fill:#fff;}.cls-2{fill:#0d1f43;}</style></defs><title>logoonblue</title><path class="cls-1" d="M554.25,0,0,320V960l554.25,320,554.26-320V320ZM878.61,799c0,44.24-14.36,85.81-40.42,117.09s-60.77,48.51-97.63,48.51H229.89V310.78H738.62c77.21,0,140,75.32,140,167.9,0,44.86-14.54,87-41,118.72-16.79,20.13-37.09,34.49-59.19,42.31C836.21,659.53,878.61,723.42,878.61,799Z"/><path class="cls-2" d="M837.62,597.4c26.45-31.68,41-73.86,41-118.72,0-92.58-62.78-167.9-140-167.9H229.89V964.6H740.56c36.86,0,71.53-17.22,97.63-48.51S878.61,843.24,878.61,799c0-75.58-42.4-139.47-100.18-159.29C800.53,631.89,820.83,617.53,837.62,597.4ZM614.85,795.52a68.6,68.6,0,1,1,0,33.75H366V458H614.85a68.6,68.6,0,1,1,0,33.75H399.76V795.52Z"/><path class="cls-1" d="M614.85,491.77a68.59,68.59,0,1,0,0-33.75H366V829.27H614.85a68.59,68.59,0,1,0,0-33.75H399.76V491.77Z"/></svg>