<?xml version="1.0" encoding="UTF-8"?>
<svg width="43px" height="39px" viewBox="0 0 43 39" version="1.1" xmlns="http://www.w3.org/2000/svg" xmlns:xlink="http://www.w3.org/1999/xlink">
    <title>Group 11</title>
    <g id="July-13th-Final-Edit" stroke="none" stroke-width="1" fill="none" fill-rule="evenodd">
        <g id="CRE-407-consumer-homepage_Desktop_Final_LeadCapture_Screen_1" transform="translate(-218.000000, -2937.000000)">
            <g id="06_Mentors-Copy" transform="translate(0.000000, 2698.000000)">
                <g id="Group-3-Copy" transform="translate(131.500000, 226.000000)">
                    <g id="Group-6" transform="translate(75.000000, 0.000000)">
                        <g id="Group-11" transform="translate(13.000000, 14.000000)">
                            <polyline id="Stroke-1" stroke="#02B3E4" stroke-width="2" stroke-linecap="round" stroke-linejoin="round" points="33.0349157 21.5664739 35.5694746 25.9801023 40 23.4356382"></polyline>
                            <path d="M22.2068142,36.6176749 C21.007123,36.8618083 19.7666458,36.9899929 18.4952878,36.9899929 C8.28072424,36.9899929 0,28.7098513 0,18.4952878 C0,8.28072424 8.28072424,0 18.4952878,0 C28.7098513,0 36.9899929,8.28072424 36.9899929,18.4952878 C36.9899929,21.0490743 36.4725933,23.4816681 35.5368458,25.6940176" id="Stroke-3" stroke="#02B3E4" stroke-width="2" stroke-linecap="round" stroke-linejoin="round"></path>
                            <polyline id="Stroke-5" stroke="#02B3E4" stroke-width="2" stroke-linecap="round" stroke-linejoin="round" points="6.73510947 18.4951712 18.4954626 18.4951712 18.4954626 6.73481814"></polyline>
                            <path d="M25.3289246,37.0600865 C28.6063714,33.4551864 29.4529723,32.3079343 29.4529723,31.324409 C29.4529723,30.2319267 28.8656538,29.6108141 27.7597704,29.6108141 C26.8927765,29.6108141 26.0525848,30.0134302 25.8748744,30.108986 L25.5200361,29.3445398 C25.8206872,29.1534282 26.8106218,28.6412725 27.889703,28.6412725 C29.5625118,28.6412725 30.6276092,29.6859769 30.6276092,31.2218613 C30.6276092,32.5812006 29.4255874,34.0081281 26.7698358,36.9371459 L31.0232335,36.9371459 L31.0232335,37.8589096 L25.3289246,37.8589096 L25.3289246,37.0600865 Z" id="Fill-7" fill="#02B3E4"></path>
                            <path d="M36.1991522,34.8068346 L36.1991522,30.3005637 L33.153603,34.8068346 L36.1991522,34.8068346 Z M36.1513743,28.7710885 L37.3120275,28.7710885 L37.3120275,34.8068346 L38.7051609,34.8068346 L38.7051609,35.7285983 L37.3120275,35.7285983 L37.3120275,37.858793 L36.1991522,37.858793 L36.1991522,35.7285983 L31.9795487,35.7285983 L31.9795487,34.8476206 L36.1513743,28.7710885 Z" id="Fill-9" fill="#02B3E4"></path>
                        </g>
                    </g>
                </g>
            </g>
        </g>
    </g>
</svg>