<?xml version="1.0" encoding="UTF-8"?>
<svg width="41px" height="40px" viewBox="0 0 41 40" version="1.1" xmlns="http://www.w3.org/2000/svg" xmlns:xlink="http://www.w3.org/1999/xlink">
    <title>Group 15</title>
    <defs>
        <polygon id="path-1" points="0 0 20.8546 0 20.8546 26.18075 0 26.18075"></polygon>
        <polygon id="path-3" points="0 0 21.1507 0 21.1507 17.525 0 17.525"></polygon>
    </defs>
    <g id="July-13th-Final-Edit" stroke="none" stroke-width="1" fill="none" fill-rule="evenodd">
        <g id="CRE-407-consumer-homepage_Desktop_Final_LeadCapture_Screen_1" transform="translate(-831.000000, -2937.000000)">
            <g id="06_Mentors-Copy" transform="translate(0.000000, 2698.000000)">
                <g id="Group-3-Copy" transform="translate(131.500000, 226.000000)">
                    <g id="Highly-Vetted" transform="translate(584.000000, 0.000000)">
                        <g id="Group-Copy" transform="translate(103.000000, 0.000000)">
                            <g id="Group-15" transform="translate(13.000000, 13.000000)">
                                <path d="M5.1377,39.99995 C4.8027,39.99995 4.5317,39.72895 4.5317,39.39395 L4.5317,30.33095 C4.5317,29.99695 4.8027,29.72495 5.1377,29.72495 C5.4727,29.72495 5.7427,29.99695 5.7427,30.33095 L5.7427,39.39395 C5.7427,39.72895 5.4727,39.99995 5.1377,39.99995" id="Fill-1" fill="#B81DD0"></path>
                                <path d="M28.7725,16.58585 C28.6175,16.58585 28.4615,16.52685 28.3435,16.40785 L24.8775,12.94185 C24.6405,12.70585 24.6405,12.32185 24.8775,12.08485 C25.1145,11.84785 25.4985,11.84785 25.7345,12.08485 L28.7725,15.12285 L34.0095,9.88485 C34.2465,9.64885 34.6295,9.64885 34.8675,9.88485 C35.1035,10.12185 35.1035,10.50485 34.8675,10.74185 L29.2015,16.40785 C29.0835,16.52685 28.9275,16.58585 28.7725,16.58585" id="Fill-3" fill="#B81DD0"></path>
                                <g id="Group-7" transform="translate(19.145400, 0.000000)">
                                    <mask id="mask-2" fill="white">
                                        <use xlink:href="#path-1"></use>
                                    </mask>
                                    <g id="Clip-6"></g>
                                    <path d="M1.212,5.34275 L1.212,15.28775 C1.212,17.28575 2.016,19.07175 3.362,20.06675 C4.855,21.16975 9.273,24.08775 9.771,24.41675 L10.427,24.84875 L11.074,24.42175 C11.123,24.39075 15.914,21.23275 17.493,20.06675 C18.839,19.07175 19.643,17.28475 19.643,15.28775 L19.643,5.34275 C15.818,5.06275 11.679,2.26775 10.427,1.36175 C9.176,2.26775 5.036,5.06275 1.212,5.34275 M10.427,26.18075 C10.312,26.18075 10.194,26.14775 10.094,26.08075 L9.112,25.43375 C8.285,24.88875 4.128,22.14075 2.642,21.04175 C0.987,19.81975 0,17.66875 0,15.28775 L0,4.75975 C0,4.42475 0.271,4.15275 0.606,4.15275 C4.81,4.15275 10.004,0.16675 10.056,0.12675 C10.274,-0.04225 10.58,-0.04225 10.798,0.12675 C10.851,0.16675 16.045,4.15275 20.248,4.15275 C20.583,4.15275 20.855,4.42475 20.855,4.75975 L20.855,15.28775 C20.855,17.66775 19.867,19.81875 18.214,21.04175 C16.609,22.22675 11.79,25.40275 11.741,25.43475 L10.761,26.08075 C10.66,26.14775 10.543,26.18075 10.427,26.18075" id="Fill-5" fill="#B81DD0" mask="url(#mask-2)"></path>
                                </g>
                                <path d="M10.5752,12.81145 C8.9102,12.81145 7.5562,14.16545 7.5562,15.83045 C7.5562,17.49545 8.9102,18.84945 10.5752,18.84945 C12.2402,18.84945 13.5952,17.49545 13.5952,15.83045 C13.5952,14.16545 12.2402,12.81145 10.5752,12.81145 M10.5752,20.06145 C8.2422,20.06145 6.3442,18.16345 6.3442,15.83045 C6.3442,13.49745 8.2422,11.59945 10.5752,11.59945 C12.9082,11.59945 14.8062,13.49745 14.8062,15.83045 C14.8062,18.16345 12.9082,20.06145 10.5752,20.06145" id="Fill-8" fill="#B81DD0"></path>
                                <g id="Group-12" transform="translate(0.000000, 22.474950)">
                                    <mask id="mask-4" fill="white">
                                        <use xlink:href="#path-3"></use>
                                    </mask>
                                    <g id="Clip-11"></g>
                                    <path d="M3.6367,1.212 C2.2997,1.212 1.2117,2.299 1.2117,3.636 L1.2117,13.889 C1.2117,15.225 2.2997,16.313 3.6367,16.313 L17.5137,16.313 C18.8507,16.313 19.9377,15.225 19.9377,13.889 L19.9377,3.636 C19.9377,2.299 18.8507,1.212 17.5137,1.212 L3.6367,1.212 Z M17.5137,17.525 L3.6367,17.525 C1.6307,17.525 -0.0003,15.894 -0.0003,13.889 L-0.0003,3.636 C-0.0003,1.631 1.6307,0 3.6367,0 L17.5137,0 C19.5187,0 21.1507,1.631 21.1507,3.636 L21.1507,13.889 C21.1507,15.894 19.5187,17.525 17.5137,17.525 L17.5137,17.525 Z" id="Fill-10" fill="#B81DD0" mask="url(#mask-4)"></path>
                                </g>
                                <path d="M16.0127,39.99995 C15.6777,39.99995 15.4067,39.72895 15.4067,39.39395 L15.4067,30.33095 C15.4067,29.99695 15.6777,29.72495 16.0127,29.72495 C16.3477,29.72495 16.6187,29.99695 16.6187,30.33095 L16.6187,39.39395 C16.6187,39.72895 16.3477,39.99995 16.0127,39.99995" id="Fill-13" fill="#B81DD0"></path>
                            </g>
                        </g>
                    </g>
                </g>
            </g>
        </g>
    </g>
</svg>