<svg id="Layer_1" data-name="Layer 1" xmlns="http://www.w3.org/2000/svg" viewBox="0 0 4233.79 1021.35"><defs><style>.cls-1{fill:#fff;}.cls-2{fill:#0d1f43;}</style></defs><title>wmkonblu</title><path class="cls-1" d="M442.25,0,0,255.35V766l442.25,255.35L884.51,766V255.35ZM701.07,637.54c0,35.31-11.46,68.48-32.25,93.44s-48.49,38.71-77.91,38.71H183.44V248H589.37c61.6,0,111.7,60.1,111.7,134,0,35.8-11.6,69.46-32.71,94.73-13.39,16.06-29.59,27.53-47.23,33.77C667.24,526.26,701.07,577.24,701.07,637.54Z"/><path class="cls-2" d="M668.36,476.68c21.11-25.27,32.71-58.93,32.71-94.73,0-73.87-50.1-134-111.7-134H183.44V769.69H590.91c29.42,0,57.08-13.75,77.91-38.71s32.25-58.13,32.25-93.44c0-60.3-33.83-111.28-79.94-127.09C638.77,504.21,655,492.74,668.36,476.68ZM490.6,634.77a54.74,54.74,0,1,1,0,26.93H292.06V365.47H490.6a54.73,54.73,0,1,1,0,26.93H319V634.77Z"/><path class="cls-1" d="M490.6,392.4a54.73,54.73,0,1,0,0-26.93H292.06V661.7H490.6a54.73,54.73,0,1,0,0-26.93H319V392.4Z"/><path class="cls-1" d="M1130.42,283.64c73.07,0,115.35,42.27,115.35,99.16,0,38.1-24,69.42-54.28,79.34,33.4,7.82,65.76,38.62,65.76,86.64,0,60.54-45.93,104.9-115.87,104.9H992.11v-370Zm-13.05,148.22c28.71,0,47.5-15.13,47.5-40.18,0-24-16.18-39.67-48.54-39.67h-43.84v79.85Zm6.79,154.49c31.84,0,51.15-16.7,51.15-43.32,0-25.57-18.79-43.31-51.15-43.31h-51.67v86.63Z"/><path class="cls-1" d="M1473.32,627.59c-13.57,22.44-43.32,31.83-69.41,31.83-63.16,0-98.65-45.92-98.65-101.25V394.29h79.34V541.47c0,25,13.57,44.88,41.75,44.88,26.62,0,43.32-18.26,43.32-44.36V394.29H1549V607.23a407,407,0,0,0,2.61,46.45h-76.2C1474.37,649,1473.32,634.37,1473.32,627.59Z"/><path class="cls-1" d="M1658.08,268.5a46.46,46.46,0,1,1,0,92.91c-25,0-45.93-20.88-45.93-46.46S1633,268.5,1658.08,268.5Zm-39.14,385.18V394.29h79.33V653.68Z"/><path class="cls-1" d="M1767.68,653.68V275.81H1847V653.68Z"/><path class="cls-1" d="M2172.17,607.23c0,23.49,1.57,40.71,2.09,46.45h-76.2a178.56,178.56,0,0,1-2.09-25c-12,17.75-38.1,30.79-69.41,30.79-73.07,0-128.4-56.36-128.4-136.22C1898.16,446,1950.35,388,2024,388c44.36,0,63.67,16.7,69.93,26.62V275.81h78.29Zm-135.7-18.79c30.8,0,58.46-21.92,58.46-64.72,0-43.32-27.66-64.19-58.46-64.19S1978,480.4,1978,523.72C1978,566.52,2005.68,588.44,2036.47,588.44Z"/><path class="cls-1" d="M2408.61,627.59c-13.57,22.44-43.32,31.83-69.42,31.83-63.15,0-98.64-45.92-98.64-101.25V394.29h79.33V541.47c0,25,13.57,44.88,41.75,44.88,26.62,0,43.32-18.26,43.32-44.36V394.29h79.34V607.23a407,407,0,0,0,2.61,46.45h-76.2C2409.65,649,2408.61,634.37,2408.61,627.59Z"/><path class="cls-1" d="M2554.22,752.85V394.29H2631V420.9c11-16.7,39.14-32.88,76.2-32.88,75.16,0,120.56,57.41,120.56,135.18,0,79.33-51.15,136.22-123.69,136.22-33.41,0-58.46-11.48-70.46-26.09V752.85ZM2691,459.53c-30.8,0-58.46,20.87-58.46,64.19,0,42.8,27.66,64.72,58.46,64.72,31.31,0,59-21.4,59-64.72S2722.28,459.53,2691,459.53Z"/><path class="cls-1" d="M2867.38,468.4c0-123.7,91.86-192.59,183.71-192.59,84.56,0,144.06,45.93,162.85,117.43l-47.5,16.7c-14.09-55.84-54.8-87.16-115.35-87.16-67.32,0-131.52,49.06-131.52,145.62s64.2,146.14,131.52,146.14c63.16,0,102.82-38.1,118-88.73l45.41,16.7c-19.84,69.42-78.29,119-163.37,119C2955.58,661.51,2867.38,592.1,2867.38,468.4Z"/><path class="cls-1" d="M3327.2,510.15l67.85-9.91c15.14-2.09,19.31-9.92,19.31-18.79,0-24.53-16.18-44.89-54.28-44.89-34.44,0-53.76,21.4-56.89,50.63l-47-11c5.22-48,48.54-81.42,102.82-81.42,75.16,0,104.38,42.8,104.38,91.86V612.45c0,21.92,2.09,35,3.14,41.23h-48c-1.05-6.26-2.61-15.65-2.61-33.92-11,17.74-36,41.75-80.9,41.75-51.15,0-84-35.49-84-75.16C3251,541.47,3283.88,516.42,3327.2,510.15Zm87.16,36V534.68l-76.72,11.49c-20.88,3.13-36.53,15.13-36.53,37.57,0,18.79,15.65,36.54,40.71,36.54C3382,620.28,3414.36,601,3414.36,546.17Z"/><path class="cls-1" d="M3539.62,653.68v-251h47V436c15.65-27.66,47-40.71,76.2-40.71,31.31,0,61.59,15.14,75.16,47.5,19.83-36,52.19-47.5,84-47.5,43.84,0,86.63,29.75,86.63,95.51V653.68h-48.53V496.06c0-32.88-16.18-57.41-53.24-57.41-34.45,0-57.93,27.14-57.93,63.15V653.68h-49.07V496.06c0-32.36-15.65-57.41-53.23-57.41-35,0-58.46,26.1-58.46,63.67V653.68Z"/><path class="cls-1" d="M3986.91,752.85V402.64h47.5v39.14c13.57-25,43.32-44.88,84-44.88,75.16,0,115.35,57.93,115.35,131,0,74.63-43.32,132.57-116.92,132.57-38.62,0-67.85-18.27-81.42-40.71V752.85Zm122.66-312.63c-44.89,0-74.64,37.57-74.64,87.68,0,51.67,29.75,88.73,74.64,88.73,45.4,0,74.11-37.06,74.11-88.73C4183.68,477.79,4155.5,440.22,4109.57,440.22Z"/></svg>