<svg id="Layer_1" data-name="Layer 1" xmlns="http://www.w3.org/2000/svg" viewBox="0 0 4230.82 1021.35"><defs><style>.cls-1{fill:#0d1f43;}.cls-2{fill:#fff;}</style></defs><title>wmkonwhite</title><path class="cls-1" d="M442.25,0,0,255.35V766l442.25,255.35L884.51,766V255.35ZM701.07,637.54c0,35.31-11.46,68.48-32.25,93.44s-48.49,38.71-77.91,38.71H183.44V248H589.37c61.6,0,111.7,60.1,111.7,134,0,35.8-11.6,69.46-32.71,94.73-13.39,16.06-29.59,27.53-47.23,33.77C667.24,526.26,701.07,577.24,701.07,637.54Z"/><path class="cls-2" d="M668.36,476.68c21.11-25.27,32.71-58.93,32.71-94.73,0-73.87-50.1-134-111.7-134H183.44V769.69H590.91c29.42,0,57.08-13.75,77.91-38.71s32.25-58.13,32.25-93.44c0-60.3-33.83-111.28-79.94-127.09C638.77,504.21,655,492.74,668.36,476.68ZM490.6,634.77a54.74,54.74,0,1,1,0,26.93H292.06V365.47H490.6a54.73,54.73,0,1,1,0,26.93H319V634.77Z"/><path class="cls-1" d="M490.6,392.4a54.73,54.73,0,1,0,0-26.93H292.06V661.7H490.6a54.73,54.73,0,1,0,0-26.93H319V392.4Z"/><path class="cls-1" d="M1127.46,281.8c73.07,0,115.34,42.27,115.34,99.16,0,38.1-24,69.42-54.28,79.34,33.41,7.82,65.77,38.62,65.77,86.63,0,60.55-45.93,104.91-115.87,104.91H989.15v-370Zm-13,148.22c28.71,0,47.5-15.13,47.5-40.18,0-24-16.18-39.67-48.54-39.67h-43.84V430Zm6.79,154.49c31.83,0,51.14-16.7,51.14-43.32,0-25.57-18.79-43.32-51.14-43.32h-51.67v86.64Z"/><path class="cls-1" d="M1470.36,625.75c-13.57,22.44-43.32,31.83-69.42,31.83-63.15,0-98.64-45.93-98.64-101.25V392.45h79.33V539.63c0,25,13.57,44.88,41.76,44.88,26.62,0,43.32-18.26,43.32-44.36V392.45H1546V605.39a407,407,0,0,0,2.61,46.45h-76.2C1471.4,647.15,1470.36,632.53,1470.36,625.75Z"/><path class="cls-1" d="M1655.12,266.66a46.45,46.45,0,1,1,0,92.9c-25,0-45.93-20.87-45.93-46.45S1630.07,266.66,1655.12,266.66ZM1616,651.84V392.45h79.33V651.84Z"/><path class="cls-1" d="M1764.72,651.84V274h79.33V651.84Z"/><path class="cls-1" d="M2169.21,605.39c0,23.49,1.57,40.71,2.09,46.45h-76.2a177,177,0,0,1-2.09-25.05c-12,17.74-38.1,30.79-69.42,30.79-73.07,0-128.39-56.36-128.39-136.22,0-77.24,52.19-135.18,125.78-135.18,44.37,0,63.68,16.7,69.94,26.62V274h78.29Zm-135.7-18.79c30.79,0,58.46-21.92,58.46-64.72,0-43.32-27.67-64.19-58.46-64.19s-58.46,20.87-58.46,64.19C1975.05,564.68,2002.72,586.6,2033.51,586.6Z"/><path class="cls-1" d="M2405.65,625.75c-13.58,22.44-43.32,31.83-69.42,31.83-63.15,0-98.64-45.93-98.64-101.25V392.45h79.33V539.63c0,25,13.57,44.88,41.75,44.88,26.62,0,43.32-18.26,43.32-44.36V392.45h79.33V605.39a407,407,0,0,0,2.61,46.45h-76.2C2406.69,647.15,2405.65,632.53,2405.65,625.75Z"/><path class="cls-1" d="M2551.26,751V392.45H2628v26.61c11-16.7,39.15-32.88,76.2-32.88,75.16,0,120.57,57.41,120.57,135.18,0,79.33-51.15,136.22-123.7,136.22-33.4,0-58.45-11.48-70.46-26.09V751ZM2688,457.69c-30.79,0-58.45,20.87-58.45,64.19,0,42.8,27.66,64.72,58.45,64.72,31.32,0,59-21.4,59-64.72S2719.32,457.69,2688,457.69Z"/><path class="cls-1" d="M2864.41,466.56c0-123.7,91.86-192.59,183.72-192.59,84.55,0,144,45.93,162.84,117.43l-47.49,16.7c-14.09-55.84-54.8-87.16-115.35-87.16-67.33,0-131.52,49.06-131.52,145.62S2980.8,612.7,3048.13,612.7c63.16,0,102.82-38.1,118-88.73l45.4,16.7c-19.83,69.42-78.28,119-163.36,119C2952.62,659.67,2864.41,590.26,2864.41,466.56Z"/><path class="cls-1" d="M3324.24,508.31l67.85-9.91c15.14-2.09,19.31-9.92,19.31-18.79,0-24.53-16.18-44.89-54.28-44.89-34.45,0-53.76,21.4-56.89,50.63l-47-11c5.22-48,48.54-81.42,102.82-81.42,75.15,0,104.38,42.8,104.38,91.86V610.61c0,21.92,2.09,35,3.13,41.23h-48c-1-6.26-2.61-15.66-2.61-33.92-11,17.74-36,41.75-80.9,41.75-51.15,0-84-35.49-84-75.16C3248,539.63,3280.92,514.58,3324.24,508.31Zm87.16,36V532.84l-76.72,11.49c-20.88,3.13-36.54,15.13-36.54,37.57,0,18.79,15.66,36.54,40.71,36.54C3379,618.44,3411.4,599.13,3411.4,544.33Z"/><path class="cls-1" d="M3536.66,651.84v-251h47v33.4c15.66-27.66,47-40.71,76.21-40.71,31.31,0,61.58,15.13,75.15,47.49,19.84-36,52.19-47.49,84-47.49,43.84,0,86.64,29.75,86.64,95.51V651.84h-48.54V494.22c0-32.88-16.18-57.41-53.23-57.41C3769.44,436.81,3746,464,3746,500V651.84h-49.06V494.22c0-32.36-15.66-57.41-53.23-57.41-35,0-58.46,26.1-58.46,63.67V651.84Z"/><path class="cls-1" d="M3984,751V400.8h47.5v39.14c13.57-25.05,43.32-44.88,84-44.88,75.15,0,115.34,57.93,115.34,131,0,74.63-43.32,132.57-116.91,132.57-38.62,0-67.85-18.27-81.42-40.71V751ZM4106.6,438.37c-44.88,0-74.63,37.58-74.63,87.69,0,51.67,29.75,88.73,74.63,88.73,45.41,0,74.12-37.06,74.12-88.73C4180.72,476,4152.53,438.37,4106.6,438.37Z"/></svg>