<?xml version="1.0" encoding="UTF-8"?>
<svg width="43px" height="34px" viewBox="0 0 43 34" version="1.1" xmlns="http://www.w3.org/2000/svg" xmlns:xlink="http://www.w3.org/1999/xlink">
    <title>Group 5</title>
    <g id="July-13th-Final-Edit" stroke="none" stroke-width="1" fill="none" fill-rule="evenodd">
        <g id="CRE-407-consumer-homepage_Desktop_Final_LeadCapture_Screen_1" transform="translate(-1163.000000, -2940.000000)" stroke="#FFA335" stroke-width="2">
            <g id="06_Mentors-Copy" transform="translate(0.000000, 2698.000000)">
                <g id="Group-3-Copy" transform="translate(131.500000, 226.000000)">
                    <g id="Personalized-Feedback" transform="translate(929.000000, 0.000000)">
                        <g id="Group-Copy-2" transform="translate(91.000000, 0.000000)">
                            <g id="Group-5" transform="translate(13.000000, 17.000000)">
                                <path d="M37.8467293,25.8801961 L35.0714546,25.8801961 L34.9936067,30.5977739 C34.9834865,31.1870819 34.6479624,31.3155308 34.2470462,30.882697 L29.6166579,25.8801961 L13.0350724,25.8801961 C11.9701142,25.8801961 11.0982186,25.0083005 11.0982186,23.9425639 L11.0982186,9.06039628 C11.0982186,7.99388116 11.9701142,7.12276406 13.0350724,7.12276406 L38.0623678,7.12276406 C39.1281044,7.12276406 40,7.99388116 40,9.06039628 L40,23.7269254 C40,24.9109907 39.0307947,25.8801961 37.8467293,25.8801961 Z" id="Stroke-1"></path>
                                <path d="M28.9025598,7.16511328 L28.9025598,2.22255524 C28.9025598,1.00034448 27.9029938,0 26.6807831,0 L2.22255524,0 C1.00034448,0 0,1.00034448 0,2.22255524 L0,16.5356553 C0,17.757866 1.00034448,18.7582105 2.22255524,18.7582105 L3.81765705,18.7582105 L3.89550487,23.4750099 C3.90562509,24.0650963 4.24114919,24.1935452 4.64284394,23.7607114 L9.27245374,18.7582105 L11.1112192,18.7582105" id="Stroke-3"></path>
                            </g>
                        </g>
                    </g>
                </g>
            </g>
        </g>
    </g>
</svg>